{
  "accessors": [
    {
      "bufferView": 2,
      "componentType": 5126,
      "count": 2629,
      "max": [
        2.1107676029205322,
        1.7765721082687378,
        2.1019210815429688
      ],
      "min": [
        -2.0831799507141113,
        -1.7152053117752075,
        -2.8980789184570313
      ],
      "type": "VEC3"
    },
    {
      "bufferView": 2,
      "byteOffset": 31548,
      "componentType": 5126,
      "count": 2629,
      "max": [
        1.0,
        1.0,
        1.0
      ],
      "min": [
        -1.0,
        -1.0,
        -1.0
      ],
      "type": "VEC3"
    },
    {
      "bufferView": 1,
      "componentType": 5126,
      "count": 2629,
      "max": [
        1.0,
        1.0000001192092896
      ],
      "min": [
        0.0,
        0.0
      ],
      "type": "VEC2"
    },
    {
      "bufferView": 0,
      "componentType": 5125,
      "count": 7710,
      "type": "SCALAR"
    },
    {
      "bufferView": 2,
      "byteOffset": 63096,
      "componentType": 5126,
      "count": 374,
      "max": [
        2.1107676029205322,
        -0.0799214243888855,
        2.1178500652313232
      ],
      "min": [
        1.9727189540863037,
        -0.1575111746788025,
        -2.9140067100524902
      ],
      "type": "VEC3"
    },
    {
      "bufferView": 2,
      "byteOffset": 67584,
      "componentType": 5126,
      "count": 374,
      "max": [
        1.0,
        1.0,
        1.0
      ],
      "min": [
        -1.0,
        -1.0,
        -1.0
      ],
      "type": "VEC3"
    },
    {
      "bufferView": 1,
      "byteOffset": 21032,
      "componentType": 5126,
      "count": 374,
      "max": [
        0.5794106125831604,
        0.7547755837440491
      ],
      "min": [
        0.5697118043899536,
        0.625
      ],
      "type": "VEC2"
    },
    {
      "bufferView": 0,
      "byteOffset": 30840,
      "componentType": 5125,
      "count": 948,
      "type": "SCALAR"
    },
    {
      "bufferView": 2,
      "byteOffset": 72072,
      "componentType": 5126,
      "count": 287,
      "max": [
        -1.4326940774917603,
        1.4085866212844849,
        0.9537147283554077
      ],
      "min": [
        -1.9693350791931152,
        -0.05451667308807373,
        -1.7355831861495972
      ],
      "type": "VEC3"
    },
    {
      "bufferView": 2,
      "byteOffset": 75516,
      "componentType": 5126,
      "count": 287,
      "max": [
        0.9961621761322021,
        0.9968152642250061,
        1.0
      ],
      "min": [
        -0.29957979917526245,
        -0.9540827870368958,
        -1.0
      ],
      "type": "VEC3"
    },
    {
      "bufferView": 1,
      "byteOffset": 24024,
      "componentType": 5126,
      "count": 287,
      "max": [
        0.9420207738876343,
        0.9263366460800171
      ],
      "min": [
        0.11776033788919449,
        0.07366332411766052
      ],
      "type": "VEC2"
    },
    {
      "bufferView": 0,
      "byteOffset": 34632,
      "componentType": 5125,
      "count": 684,
      "type": "SCALAR"
    },
    {
      "bufferView": 2,
      "byteOffset": 78960,
      "componentType": 5126,
      "count": 102,
      "max": [
        1.9678783416748047,
        0.579438328742981,
        2.1019210815429688
      ],
      "min": [
        -1.8473902940750122,
        -1.6228396892547607,
        -2.8980789184570313
      ],
      "type": "VEC3"
    },
    {
      "bufferView": 2,
      "byteOffset": 80184,
      "componentType": 5126,
      "count": 102,
      "max": [
        0.0,
        0.0,
        1.0
      ],
      "min": [
        0.0,
        0.0,
        -1.0
      ],
      "type": "VEC3"
    },
    {
      "bufferView": 1,
      "byteOffset": 26320,
      "componentType": 5126,
      "count": 102,
      "max": [
        0.6201555132865906,
        0.9942272305488586
      ],
      "min": [
        0.3830234706401825,
        0.7549619078636169
      ],
      "type": "VEC2"
    },
    {
      "bufferView": 0,
      "byteOffset": 37368,
      "componentType": 5125,
      "count": 270,
      "type": "SCALAR"
    },
    {
      "bufferView": 2,
      "byteOffset": 81408,
      "componentType": 5126,
      "count": 1228,
      "max": [
        1.4609999656677246,
        0.027000000700354576,
        0.3500000238418579
      ],
      "min": [
        -1.4610000848770142,
        -0.027000000700354576,
        -0.3500000238418579
      ],
      "type": "VEC3"
    },
    {
      "bufferView": 2,
      "byteOffset": 96144,
      "componentType": 5126,
      "count": 1228,
      "max": [
        1.0,
        1.0,
        1.0
      ],
      "min": [
        -1.0,
        -1.0,
        -1.0
      ],
      "type": "VEC3"
    },
    {
      "bufferView": 1,
      "byteOffset": 27136,
      "componentType": 5126,
      "count": 1228,
      "max": [
        1.0,
        1.0
      ],
      "min": [
        0.0,
        0.0
      ],
      "type": "VEC2"
    },
    {
      "bufferView": 0,
      "byteOffset": 38448,
      "componentType": 5125,
      "count": 3516,
      "type": "SCALAR"
    }
  ],
  "asset": {
    "extras": {
      "author": "zafry (https://sketchfab.com/zafry)",
      "license": "CC-BY-4.0 (http://creativecommons.org/licenses/by/4.0/)",
      "source": "https://sketchfab.com/3d-models/epson-printer-model-752da10ef09a4f4782aa6c38a82f4b26",
      "title": "Epson printer model"
    },
    "generator": "Sketchfab-12.67.0",
    "version": "2.0"
  },
  "bufferViews": [
    {
      "buffer": 0,
      "byteLength": 52512,
      "name": "floatBufferViews",
      "target": 34963
    },
    {
      "buffer": 0,
      "byteLength": 36960,
      "byteOffset": 52512,
      "byteStride": 8,
      "name": "floatBufferViews",
      "target": 34962
    },
    {
      "buffer": 0,
      "byteLength": 110880,
      "byteOffset": 89472,
      "byteStride": 12,
      "name": "floatBufferViews",
      "target": 34962
    }
  ],
  "buffers": [
    {
      "byteLength": 200352,
      "uri": "scene.bin"
    }
  ],
  "materials": [
    {
      "doubleSided": true,
      "name": "Material.002",
      "pbrMetallicRoughness": {
        "baseColorFactor": [
          0.0,
          0.0,
          0.0,
          1.0
        ],
        "metallicFactor": 0.0,
        "roughnessFactor": 0.0
      }
    },
    {
      "doubleSided": true,
      "name": "Material.003",
      "pbrMetallicRoughness": {
        "roughnessFactor": 0.170886
      }
    },
    {
      "doubleSided": true,
      "name": "Material.004",
      "pbrMetallicRoughness": {
        "baseColorFactor": [
          0.106535,
          0.106535,
          0.106535,
          1.0
        ],
        "metallicFactor": 0.0,
        "roughnessFactor": 0.0
      }
    },
    {
      "doubleSided": true,
      "name": "Material.006",
      "pbrMetallicRoughness": {
        "baseColorFactor": [
          0.0,
          0.0,
          0.0,
          1.0
        ],
        "metallicFactor": 0.0,
        "roughnessFactor": 0.122727
      }
    },
    {
      "doubleSided": true,
      "name": "Material.005",
      "pbrMetallicRoughness": {
        "baseColorFactor": [
          0.438544,
          0.438544,
          0.438544,
          1.0
        ],
        "roughnessFactor": 0.860759
      }
    }
  ],
  "meshes": [
    {
      "name": "Object_0",
      "primitives": [
        {
          "attributes": {
            "NORMAL": 1,
            "POSITION": 0,
            "TEXCOORD_0": 2
          },
          "indices": 3,
          "material": 0,
          "mode": 4
        }
      ]
    },
    {
      "name": "Object_1",
      "primitives": [
        {
          "attributes": {
            "NORMAL": 5,
            "POSITION": 4,
            "TEXCOORD_0": 6
          },
          "indices": 7,
          "material": 1,
          "mode": 4
        }
      ]
    },
    {
      "name": "Object_2",
      "primitives": [
        {
          "attributes": {
            "NORMAL": 9,
            "POSITION": 8,
            "TEXCOORD_0": 10
          },
          "indices": 11,
          "material": 2,
          "mode": 4
        }
      ]
    },
    {
      "name": "Object_3",
      "primitives": [
        {
          "attributes": {
            "NORMAL": 13,
            "POSITION": 12,
            "TEXCOORD_0": 14
          },
          "indices": 15,
          "material": 3,
          "mode": 4
        }
      ]
    },
    {
      "name": "Object_4",
      "primitives": [
        {
          "attributes": {
            "NORMAL": 17,
            "POSITION": 16,
            "TEXCOORD_0": 18
          },
          "indices": 19,
          "material": 4,
          "mode": 4
        }
      ]
    }
  ],
  "nodes": [
    {
      "children": [
        1
      ],
      "matrix": [
        1.0,
        0.0,
        0.0,
        0.0,
        0.0,
        2.220446049250313e-16,
        -1.0,
        0.0,
        0.0,
        1.0,
        2.220446049250313e-16,
        0.0,
        0.0,
        0.0,
        0.0,
        1.0
      ],
      "name": "Sketchfab_model"
    },
    {
      "children": [
        2
      ],
      "name": "root"
    },
    {
      "children": [
        3,
        8
      ],
      "matrix": [
        1.0,
        0.0,
        0.0,
        0.0,
        0.0,
        2.220446049250313e-16,
        1.0,
        0.0,
        0.0,
        -1.0,
        2.220446049250313e-16,
        0.0,
        0.0,
        0.0,
        0.0,
        1.0
      ],
      "name": "GLTF_SceneRootNode"
    },
    {
      "children": [
        4,
        5,
        6,
        7
      ],
      "matrix": [
        1.0,
        0.0,
        0.0,
        0.0,
        0.0,
        1.0,
        0.0,
        0.0,
        0.0,
        0.0,
        1.0,
        0.0,
        -0.060244120657444,
        1.7152053117752075,
        0.39807894825935364,
        1.0
      ],
      "name": "Cube_0"
    },
    {
      "mesh": 0,
      "name": "Object_4"
    },
    {
      "mesh": 1,
      "name": "Object_5"
    },
    {
      "mesh": 2,
      "name": "Object_6"
    },
    {
      "mesh": 3,
      "name": "Object_7"
    },
    {
      "children": [
        9
      ],
      "matrix": [
        -5.910235856276813e-09,
        5.9102360324155675e-09,
        -0.19831460714340193,
        0.0,
        0.19831460714340193,
        -5.910235856276813e-09,
        -5.9102360324155675e-09,
        0.0,
        -5.9102360324155675e-09,
        -0.19831460714340193,
        -5.910235856276813e-09,
        0.0,
        1.9961432218551636,
        1.433481216430664,
        -0.027003169059753418,
        1.0
      ],
      "name": "Text.001_3"
    },
    {
      "mesh": 4,
      "name": "Object_9"
    }
  ],
  "scene": 0,
  "scenes": [
    {
      "name": "Sketchfab_Scene",
      "nodes": [
        0
      ]
    }
  ]
}
