{
  "accessors": [
    {
      "bufferView": 2,
      "componentType": 5126,
      "count": 416,
      "max": [
        18.11255645751953,
        51.066436767578125,
        138.91842651367188
      ],
      "min": [
        -120.55580139160156,
        -18.11255645751953,
        10.266260147094727
      ],
      "type": "VEC3"
    },
    {
      "bufferView": 2,
      "byteOffset": 4992,
      "componentType": 5126,
      "count": 416,
      "max": [
        1.0,
        1.0,
        1.0000002248489182e-06
      ],
      "min": [
        -1.0,
        -1.0,
        -1.0000002248489182e-06
      ],
      "type": "VEC3"
    },
    {
      "bufferView": 3,
      "componentType": 5126,
      "count": 416,
      "max": [
        1.0,
        1.0,
        4.65345647171489e-06,
        1.0
      ],
      "min": [
        -1.0,
        -1.0,
        -4.6594332161475904e-06,
        -1.0
      ],
      "type": "VEC4"
    },
    {
      "bufferView": 1,
      "componentType": 5126,
      "count": 416,
      "max": [
        0.9868239760398865,
        0.4771159887313843
      ],
      "min": [
        0.007933000102639198,
        0.012458999641239643
      ],
      "type": "VEC2"
    },
    {
      "bufferView": 0,
      "componentType": 5125,
      "count": 1152,
      "type": "SCALAR"
    },
    {
      "bufferView": 2,
      "byteOffset": 9984,
      "componentType": 5126,
      "count": 9976,
      "max": [
        18.06255340576172,
        51.016441345214844,
        149.1846923828125
      ],
      "min": [
        -120.50580596923828,
        -18.06256103515625,
        -6.000000212225132e-06
      ],
      "type": "VEC3"
    },
    {
      "bufferView": 2,
      "byteOffset": 129696,
      "componentType": 5126,
      "count": 9976,
      "max": [
        0.9974623322486877,
        0.9974623322486877,
        1.0
      ],
      "min": [
        -0.9974623322486877,
        -0.9974626302719116,
        -1.0
      ],
      "type": "VEC3"
    },
    {
      "bufferView": 3,
      "byteOffset": 6656,
      "componentType": 5126,
      "count": 9976,
      "max": [
        1.0,
        1.0,
        0.9351995587348938,
        1.0
      ],
      "min": [
        -1.0,
        -1.0,
        -0.9351991415023804,
        1.0
      ],
      "type": "VEC4"
    },
    {
      "bufferView": 1,
      "byteOffset": 3328,
      "componentType": 5126,
      "count": 9976,
      "max": [
        0.9915090203285217,
        0.9711520075798035
      ],
      "min": [
        0.006705999840050936,
        0.026048999279737473
      ],
      "type": "VEC2"
    },
    {
      "bufferView": 0,
      "byteOffset": 4608,
      "componentType": 5125,
      "count": 50976,
      "type": "SCALAR"
    },
    {
      "bufferView": 2,
      "byteOffset": 249408,
      "componentType": 5126,
      "count": 5009,
      "max": [
        31.65182113647461,
        23.54307746887207,
        111.1588134765625
      ],
      "min": [
        -25.22832489013672,
        -23.920902252197266,
        0.0
      ],
      "type": "VEC3"
    },
    {
      "bufferView": 2,
      "byteOffset": 309516,
      "componentType": 5126,
      "count": 5009,
      "max": [
        1.0,
        1.0,
        1.0
      ],
      "min": [
        -1.0,
        -1.0,
        -1.0
      ],
      "type": "VEC3"
    },
    {
      "bufferView": 3,
      "byteOffset": 166272,
      "componentType": 5126,
      "count": 5009,
      "max": [
        1.0,
        1.0,
        1.0,
        1.0
      ],
      "min": [
        -0.9999992847442627,
        -1.0,
        -0.9999995827674866,
        1.0
      ],
      "type": "VEC4"
    },
    {
      "bufferView": 1,
      "byteOffset": 83136,
      "componentType": 5126,
      "count": 5009,
      "max": [
        1.0002659559249878,
        0.9918590188026428
      ],
      "min": [
        0.007598999887704849,
        0.008488000370562077
      ],
      "type": "VEC2"
    },
    {
      "bufferView": 0,
      "byteOffset": 208512,
      "componentType": 5125,
      "count": 23082,
      "type": "SCALAR"
    }
  ],
  "asset": {
    "extras": {
      "author": "RavenLoh (https://sketchfab.com/RavenLoh)",
      "license": "CC-BY-4.0 (http://creativecommons.org/licenses/by/4.0/)",
      "source": "https://sketchfab.com/3d-models/water-dispencer-pbr-game-ready-7f731275e50143b49dca4a1f224f98ec",
      "title": "Water Dispencer - PBR - Game Ready"
    },
    "generator": "Sketchfab-12.67.0",
    "version": "2.0"
  },
  "bufferViews": [
    {
      "buffer": 0,
      "byteLength": 300840,
      "name": "floatBufferViews",
      "target": 34963
    },
    {
      "buffer": 0,
      "byteLength": 123208,
      "byteOffset": 300840,
      "byteStride": 8,
      "name": "floatBufferViews",
      "target": 34962
    },
    {
      "buffer": 0,
      "byteLength": 369624,
      "byteOffset": 424048,
      "byteStride": 12,
      "name": "floatBufferViews",
      "target": 34962
    },
    {
      "buffer": 0,
      "byteLength": 246416,
      "byteOffset": 793672,
      "byteStride": 16,
      "name": "floatBufferViews",
      "target": 34962
    }
  ],
  "buffers": [
    {
      "byteLength": 1040088,
      "uri": "scene.bin"
    }
  ],
  "extensionsUsed": [
    "KHR_materials_transmission"
  ],
  "images": [
    {
      "uri": "textures/Sticker_baseColor.png"
    },
    {
      "uri": "textures/Sticker_metallicRoughness.png"
    },
    {
      "uri": "textures/Sticker_normal.png"
    },
    {
      "uri": "textures/Water_Bottle_baseColor.png"
    },
    {
      "uri": "textures/Water_Bottle_metallicRoughness.png"
    },
    {
      "uri": "textures/Water_Bottle_normal.png"
    },
    {
      "uri": "textures/Water_Bottle_transmission.png"
    },
    {
      "uri": "textures/Water_Dispender_baseColor.png"
    },
    {
      "uri": "textures/Water_Dispender_metallicRoughness.png"
    },
    {
      "uri": "textures/Water_Dispender_emissive.png"
    },
    {
      "uri": "textures/Water_Dispender_normal.png"
    }
  ],
  "materials": [
    {
      "doubleSided": true,
      "name": "Sticker",
      "normalTexture": {
        "index": 2
      },
      "pbrMetallicRoughness": {
        "baseColorTexture": {
          "index": 0
        },
        "metallicRoughnessTexture": {
          "index": 1
        }
      }
    },
    {
      "alphaMode": "BLEND",
      "doubleSided": true,
      "extensions": {
        "KHR_materials_transmission": {
          "transmissionFactor": 1.0,
          "transmissionTexture": {
            "index": 6
          }
        }
      },
      "name": "Water_Bottle",
      "normalTexture": {
        "index": 5
      },
      "occlusionTexture": {
        "index": 4
      },
      "pbrMetallicRoughness": {
        "baseColorFactor": [
          0.012824796563595442,
          0.1138788422272192,
          0.0933943026637953,
          1.0
        ],
        "baseColorTexture": {
          "index": 3
        },
        "metallicRoughnessTexture": {
          "index": 4
        }
      }
    },
    {
      "doubleSided": true,
      "emissiveFactor": [
        1.0,
        1.0,
        1.0
      ],
      "emissiveTexture": {
        "index": 9
      },
      "name": "Water_Dispender",
      "normalTexture": {
        "index": 10
      },
      "occlusionTexture": {
        "index": 8
      },
      "pbrMetallicRoughness": {
        "baseColorTexture": {
          "index": 7
        },
        "metallicRoughnessTexture": {
          "index": 8
        }
      }
    }
  ],
  "meshes": [
    {
      "name": "Object_0",
      "primitives": [
        {
          "attributes": {
            "NORMAL": 1,
            "POSITION": 0,
            "TANGENT": 2,
            "TEXCOORD_0": 3
          },
          "indices": 4,
          "material": 0,
          "mode": 4
        }
      ]
    },
    {
      "name": "Object_1",
      "primitives": [
        {
          "attributes": {
            "NORMAL": 6,
            "POSITION": 5,
            "TANGENT": 7,
            "TEXCOORD_0": 8
          },
          "indices": 9,
          "material": 1,
          "mode": 4
        }
      ]
    },
    {
      "name": "Object_2",
      "primitives": [
        {
          "attributes": {
            "NORMAL": 11,
            "POSITION": 10,
            "TANGENT": 12,
            "TEXCOORD_0": 13
          },
          "indices": 14,
          "material": 2,
          "mode": 4
        }
      ]
    }
  ],
  "nodes": [
    {
      "children": [
        1
      ],
      "matrix": [
        0.009999999776482582,
        0.0,
        0.0,
        0.0,
        0.0,
        2.2204459996194763e-18,
        -0.009999999776482582,
        0.0,
        0.0,
        0.009999999776482582,
        2.2204459996194763e-18,
        0.0,
        0.0,
        0.0,
        0.0,
        1.0
      ],
      "name": "Sketchfab_model"
    },
    {
      "children": [
        2,
        3,
        4
      ],
      "name": "Mesh_Combine.obj.cleaner.materialmerger.gles"
    },
    {
      "mesh": 0,
      "name": "Object_2"
    },
    {
      "mesh": 1,
      "name": "Object_3"
    },
    {
      "mesh": 2,
      "name": "Object_4"
    }
  ],
  "samplers": [
    {
      "magFilter": 9729,
      "minFilter": 9987,
      "wrapS": 10497,
      "wrapT": 10497
    }
  ],
  "scene": 0,
  "scenes": [
    {
      "name": "Sketchfab_Scene",
      "nodes": [
        0
      ]
    }
  ],
  "textures": [
    {
      "sampler": 0,
      "source": 0
    },
    {
      "sampler": 0,
      "source": 1
    },
    {
      "sampler": 0,
      "source": 2
    },
    {
      "sampler": 0,
      "source": 3
    },
    {
      "sampler": 0,
      "source": 4
    },
    {
      "sampler": 0,
      "source": 5
    },
    {
      "sampler": 0,
      "source": 6
    },
    {
      "sampler": 0,
      "source": 7
    },
    {
      "sampler": 0,
      "source": 8
    },
    {
      "sampler": 0,
      "source": 9
    },
    {
      "sampler": 0,
      "source": 10
    }
  ]
}
