{
  "accessors": [
    {
      "bufferView": 2,
      "componentType": 5126,
      "count": 1683,
      "max": [
        5.907491683959961,
        4.324485778808594,
        -1.8186054229736328
      ],
      "min": [
        -4.718332290649414,
        0.0,
        -6.181394577026367
      ],
      "type": "VEC3"
    },
    {
      "bufferView": 2,
      "byteOffset": 20196,
      "componentType": 5126,
      "count": 1683,
      "max": [
        1.0,
        0.999999463558197,
        1.0
      ],
      "min": [
        -1.0,
        -1.0,
        -1.0
      ],
      "type": "VEC3"
    },
    {
      "bufferView": 1,
      "componentType": 5126,
      "count": 1683,
      "max": [
        0.9746151566505432,
        0.9751497507095337
      ],
      "min": [
        0.024846404790878296,
        0.02484878897666931
      ],
      "type": "VEC2"
    },
    {
      "bufferView": 0,
      "componentType": 5125,
      "count": 6372,
      "type": "SCALAR"
    },
    {
      "bufferView": 2,
      "byteOffset": 40392,
      "componentType": 5126,
      "count": 1523,
      "max": [
        -5.906628131866455,
        4.019869327545166,
        6.556100845336914
      ],
      "min": [
        -10.09337043762207,
        0.0,
        -0.5561008453369141
      ],
      "type": "VEC3"
    },
    {
      "bufferView": 2,
      "byteOffset": 58668,
      "componentType": 5126,
      "count": 1523,
      "max": [
        1.0,
        0.9999995231628418,
        1.0
      ],
      "min": [
        -1.0,
        -1.0,
        -1.0
      ],
      "type": "VEC3"
    },
    {
      "bufferView": 1,
      "byteOffset": 13464,
      "componentType": 5126,
      "count": 1523,
      "max": [
        0.9751484394073486,
        0.9586975574493408
      ],
      "min": [
        0.02484750747680664,
        0.02481594681739807
      ],
      "type": "VEC2"
    },
    {
      "bufferView": 0,
      "byteOffset": 25488,
      "componentType": 5125,
      "count": 5724,
      "type": "SCALAR"
    },
    {
      "bufferView": 2,
      "byteOffset": 76944,
      "componentType": 5126,
      "count": 1363,
      "max": [
        11.106033325195313,
        4.210533618927002,
        5.148714065551758
      ],
      "min": [
        6.893965721130371,
        0.0,
        0.8512859344482422
      ],
      "type": "VEC3"
    },
    {
      "bufferView": 2,
      "byteOffset": 93300,
      "componentType": 5126,
      "count": 1363,
      "max": [
        1.0,
        1.0,
        1.0
      ],
      "min": [
        -1.0,
        -1.0,
        -1.0
      ],
      "type": "VEC3"
    },
    {
      "bufferView": 1,
      "byteOffset": 25648,
      "componentType": 5126,
      "count": 1363,
      "max": [
        0.9320904016494751,
        0.9751496911048889
      ],
      "min": [
        0.02476152777671814,
        0.02484878897666931
      ],
      "type": "VEC2"
    },
    {
      "bufferView": 0,
      "byteOffset": 48384,
      "componentType": 5125,
      "count": 5076,
      "type": "SCALAR"
    }
  ],
  "asset": {
    "extras": {
      "author": "MrPuppet (https://sketchfab.com/MrPuppet)",
      "license": "CC-BY-4.0 (http://creativecommons.org/licenses/by/4.0/)",
      "source": "https://sketchfab.com/3d-models/three-piece-living-room-set-0b53af392e714246b2202a8677836597",
      "title": "Three Piece Living Room Set"
    },
    "generator": "Sketchfab-13.4.0",
    "version": "2.0"
  },
  "bufferViews": [
    {
      "buffer": 0,
      "byteLength": 68688,
      "name": "floatBufferViews",
      "target": 34963
    },
    {
      "buffer": 0,
      "byteLength": 36552,
      "byteOffset": 68688,
      "byteStride": 8,
      "name": "floatBufferViews",
      "target": 34962
    },
    {
      "buffer": 0,
      "byteLength": 109656,
      "byteOffset": 105240,
      "byteStride": 12,
      "name": "floatBufferViews",
      "target": 34962
    }
  ],
  "buffers": [
    {
      "byteLength": 214896,
      "uri": "scene.bin"
    }
  ],
  "materials": [
    {
      "doubleSided": true,
      "name": "pasted__living_room_set_lambert5",
      "pbrMetallicRoughness": {
        "baseColorFactor": [
          0.207612,
          0.397348,
          0.529412,
          1.0
        ],
        "metallicFactor": 0.0,
        "roughnessFactor": 0.6
      }
    }
  ],
  "meshes": [
    {
      "name": "three_seat_sofa_pasted__living_room_set_lambert5_0",
      "primitives": [
        {
          "attributes": {
            "NORMAL": 1,
            "POSITION": 0,
            "TEXCOORD_0": 2
          },
          "indices": 3,
          "material": 0,
          "mode": 4
        }
      ]
    },
    {
      "name": "two_seat_sofa_pasted__living_room_set_lambert5_0",
      "primitives": [
        {
          "attributes": {
            "NORMAL": 5,
            "POSITION": 4,
            "TEXCOORD_0": 6
          },
          "indices": 7,
          "material": 0,
          "mode": 4
        }
      ]
    },
    {
      "name": "one_seat_couch_pasted__living_room_set_lambert5_0",
      "primitives": [
        {
          "attributes": {
            "NORMAL": 9,
            "POSITION": 8,
            "TEXCOORD_0": 10
          },
          "indices": 11,
          "material": 0,
          "mode": 4
        }
      ]
    }
  ],
  "nodes": [
    {
      "children": [
        1
      ],
      "matrix": [
        1.0,
        0.0,
        0.0,
        0.0,
        0.0,
        2.220446049250313e-16,
        -1.0,
        0.0,
        0.0,
        1.0,
        2.220446049250313e-16,
        0.0,
        0.0,
        0.0,
        0.0,
        1.0
      ],
      "name": "Sketchfab_model"
    },
    {
      "children": [
        2
      ],
      "matrix": [
        0.009999999776482582,
        0.0,
        0.0,
        0.0,
        0.0,
        0.0,
        0.009999999776482582,
        0.0,
        0.0,
        -0.009999999776482582,
        0.0,
        0.0,
        0.0,
        0.0,
        0.0,
        1.0
      ],
      "name": "1dbfb2a3f41b4e5ca31826bbf711ad0f.fbx"
    },
    {
      "children": [
        3,
        5,
        7
      ],
      "name": "RootNode"
    },
    {
      "children": [
        4
      ],
      "name": "three_seat_sofa"
    },
    {
      "mesh": 0,
      "name": "three_seat_sofa_pasted__living_room_set_lambert5_0"
    },
    {
      "children": [
        6
      ],
      "name": "two_seat_sofa"
    },
    {
      "mesh": 1,
      "name": "two_seat_sofa_pasted__living_room_set_lambert5_0"
    },
    {
      "children": [
        8
      ],
      "name": "one_seat_couch"
    },
    {
      "mesh": 2,
      "name": "one_seat_couch_pasted__living_room_set_lambert5_0"
    }
  ],
  "scene": 0,
  "scenes": [
    {
      "name": "Sketchfab_Scene",
      "nodes": [
        0
      ]
    }
  ]
}
